<svg xmlns="http://www.w3.org/2000/svg" viewBox="0 0 62.8 55.96"><defs><style>.cls-1{fill:#fff}.cls-2{fill:#132333}.cls-3{fill:#fda109}.cls-4{fill:#f10216}.cls-5{fill:#fdfdfd}</style></defs><title>logo_sulsel</title><g id="Layer_2" data-name="Layer 2"><g id="Layer_1-2" data-name="Layer 1"><path d="M47,55.17c-4.4.7-8.94.54-13.88.79-6.68-.93-13.84-1.51-20.81-3C1.92,50.78-2.8,41.76,1.71,32.1A168.85,168.85,0,0,1,15.28,7.79c6.21-9,13.18-9.95,22.43-4.12A67.06,67.06,0,0,1,60.53,27C66.78,37.87,59.45,53.21,47,55.17Z" class="cls-1"/><g id="Layer_2-2" data-name="Layer 2"><g id="Layer_1-2-2" data-name="Layer 1-2"><path d="M36.76,16.79A2.74,2.74,0,0,1,34.88,16c-1.26-1.15-2.49-2.32-3.74-3.48-1-.93-1-.93-2,0q-.87.86-1.71,1.74c-.56.6-.58.83-.14,1.52a11.24,11.24,0,0,0,2,2.54c.3.27.57.37.87,0s.72-.55.28-1.08-.91-1.21-1.39-1.81a.53.53,0,0,1-.07-.68c.07-.13.14-.26.22-.38.74-1.21,1.37-1.27,2.27-.17.59.71,1.13,1.45,1.66,2.21a1.42,1.42,0,0,1-.26,2.12,26.51,26.51,0,0,1-3.3,2.47c-.7.45-.9.42-1.47-.14a19.92,19.92,0,0,1-3-4.16,1.2,1.2,0,0,1,0-1.25,3.86,3.86,0,0,1,.39-.65A34.47,34.47,0,0,1,30,10.37c.84-.7,1.33-.66,2.25-.06a16.6,16.6,0,0,1,3.92,3.88l.34.44c.63.78,1.1.84,1.94.24l.8-.56c.12-.07.28-.24.41,0s.28.4.06.59a8.08,8.08,0,0,1-2.37,1.77A3.75,3.75,0,0,1,36.76,16.79Z" class="cls-2"/><path d="M12.85,41.62c-.55,0-.83-.13-1-.48a10.52,10.52,0,0,1-.69-1.53c-.19-.57-.11-.7.47-.81A24,24,0,0,0,15.38,38c1.27-.44,1.29-.52.57-1.61-.42-.63-.85-1.26-1.27-1.9a7.92,7.92,0,0,1-.62-1.19,2.93,2.93,0,0,1,.64-3.36,8.43,8.43,0,0,1,1.37-1.15,26,26,0,0,1,4.7-2.46.46.46,0,0,1,.61.15,3.77,3.77,0,0,1,.76,1.49c.15.59-.06,1-.72,1.35-1.06.59-2.14,1.14-3.2,1.74-.61.34-1.21.72-1.79,1.12a1.29,1.29,0,0,0-.38,2.08c.34.54.71,1.05,1.07,1.57.55.76,1.12,1.51,1.64,2.29a1.25,1.25,0,0,1-.43,2,7.83,7.83,0,0,1-1.53.7A18.51,18.51,0,0,1,12.85,41.62Z" class="cls-2"/><path d="M41.29,34a14.88,14.88,0,0,1,1.06-5.56c.17-.43.37-.49.77-.29a2.13,2.13,0,0,1,1.24,2.6c-.17.92-.36,1.85-.53,2.77a5.17,5.17,0,0,0,0,1.57,3.76,3.76,0,0,0,3.79,3.72A8.85,8.85,0,0,0,54,36.8c.2-.16.39-.33.59-.48s.3-.32.51-.11a.51.51,0,0,1,.13.64,1.46,1.46,0,0,1-.26.34,10.59,10.59,0,0,1-9.32,3.26A4.61,4.61,0,0,1,41.74,37,8.89,8.89,0,0,1,41.29,34Z" class="cls-2"/><path d="M18.8,34.39A10.49,10.49,0,0,1,19,32.53a.68.68,0,0,1,.71-.6,1.69,1.69,0,0,1,1.85,1.87,10.76,10.76,0,0,0,0,1.13c0,.19-.05.48.16.54s.34-.23.45-.4a3,3,0,0,0,.44-1.33c.1-.7.18-1.4.27-2.1.08-.54.29-.68.81-.6a2,2,0,0,1,1.65,1.88c0,1.43.08,2.86.21,4.28.06.75-.24,1-1,.8a2,2,0,0,1-1.49-1.13c-.15-.35-.29-.35-.6-.16-1.33.82-2,.81-2.88,0A3.17,3.17,0,0,1,18.8,34.39Z" class="cls-2"/><path d="M30.64,40.39a3.29,3.29,0,0,1-1.12-.18c-.17-.07-.34-.17-.36-.37s.14-.32.3-.41a12,12,0,0,0,1.53-1,4.4,4.4,0,0,0,1.13-1.3c.36-.64.28-1-.34-1.35a4.07,4.07,0,0,1-.79-.57,2.45,2.45,0,0,1-.33-3,3.88,3.88,0,0,1,1.58-1.37c.44-.2.88-.37,1.26.15a1.35,1.35,0,0,1,.11,1.78,3.36,3.36,0,0,0-.8,1.15.88.88,0,0,0,.6,1.28c.21.08.45.14.66.24a1.37,1.37,0,0,1,.8,1.6A5.34,5.34,0,0,1,30.64,40.39Z" class="cls-2"/><path d="M26.37,31.86a16.08,16.08,0,0,1,.23-3.44A.93.93,0,0,1,28,27.68a1.71,1.71,0,0,1,1.22,2.06A25.66,25.66,0,0,0,29,33.25a5.94,5.94,0,0,0,1,3.44c.2.28.4.62.09.93s-.65.11-.95,0a4.7,4.7,0,0,1-2.64-3.8C26.4,33,26.39,32.25,26.37,31.86Z" class="cls-2"/><path d="M35.24,34.9a3.57,3.57,0,0,1,3.16-3.61,2.14,2.14,0,0,1,2.37,1.91.25.25,0,0,1,0,.08.91.91,0,0,1-.41.78,15.9,15.9,0,0,1-2.56,1.83c-.5.3-.52.4-.17.87a2.24,2.24,0,0,0,1.12.82c.27.09.48.19.39.53s-.34.34-.6.33A3.61,3.61,0,0,1,35.24,34.9Zm2.5-.75a3.52,3.52,0,0,0,1-.63c.12-.11.27-.23.12-.41a.34.34,0,0,0-.52,0,2.1,2.1,0,0,0-.63,1.08Z" class="cls-2"/><path d="M35.73,20.42a1.48,1.48,0,0,1-.46.93c-1.17,1-2.36,2.08-3.53,3.13a.5.5,0,0,1-.86-.07c-.24-.34-.52-.66-.76-1-.35-.49-.36-.84.09-1.24C31.5,21,32.89,20,34.27,18.92c.16-.12.35-.18.5,0A5.83,5.83,0,0,1,35.73,20.42Z" class="cls-3"/><path d="M9.24,42.29l-.49,0c-1.3-.15-1.39-.27-1.21-1.54A1.51,1.51,0,0,1,9,39.14a.86.86,0,0,1,1.06.53,8,8,0,0,1,.53,1.59c.12.58,0,.8-.59.92C9.72,42.24,9.45,42.26,9.24,42.29Z" class="cls-4"/><path d="M38,12.85a.7.7,0,0,1-.54-.15,4.93,4.93,0,0,1-.74-.63c-.92-1.06-1-1.28.19-2.23.61-.49.83-.47,1.4.08.28.27.52.6.81.87s.35.73.05,1.12A2,2,0,0,1,38,12.85Z" class="cls-4"/><path d="M37.74,34.15a2.17,2.17,0,0,1,.63-1.08.35.35,0,0,1,.53,0c.15.19,0,.3-.13.41A3.4,3.4,0,0,1,37.74,34.15Z" class="cls-5"/></g></g></g></g></svg>