<svg id="Capa_1" enable-background="new 0 0 512 512" height="512" viewBox="0 0 512 512" width="512" xmlns="http://www.w3.org/2000/svg"><path d="m370.788 129.552h-36.278v-64.828c2.022-2 3.278-4.772 3.278-7.834v-22.165c0-19.147-15.577-34.725-34.725-34.725h-94.126c-19.147 0-34.725 15.578-34.725 34.726v22.164c0 3.062 1.257 5.835 3.279 7.835v64.828h-36.279c-21.825 0-39.581 17.756-39.581 39.581v274.188c0 17.113 10.918 31.721 26.153 37.232v9.726c0 11.977 9.744 21.721 21.721 21.721h9.003c11.977 0 21.721-9.744 21.721-21.721v-7.377h151.543v7.377c0 11.977 9.744 21.721 21.721 21.721h9.004c11.977 0 21.721-9.744 21.721-21.721v-9.726c15.235-5.512 26.153-20.12 26.153-37.232v-274.189c-.001-21.825-17.758-39.581-39.583-39.581zm-61.659 0v-61.636h10.381v61.636zm-91.258-64.828c2.022-2 3.278-4.772 3.278-7.834v-9.952h69.701v9.952c0 3.062 1.256 5.834 3.278 7.834v64.828h-76.258v-64.828zm-28.659-29.998c0-10.877 8.849-19.726 19.725-19.726h94.126c10.876 0 19.725 8.849 19.725 19.725v18.191h-16.938v-9.735c0-6.199-5.043-11.243-11.242-11.243h-77.216c-6.199 0-11.243 5.043-11.243 11.243v9.735h-16.938v-18.19zm3.278 33.19h10.38v61.636h-10.38zm-27.262 422.363c0 3.706-3.015 6.721-6.721 6.721h-9.003c-3.706 0-6.721-3.015-6.721-6.721v-7.377h22.445zm197.268 6.721h-9.004c-3.706 0-6.721-3.015-6.721-6.721v-7.377h22.445v7.377c.001 3.706-3.014 6.721-6.72 6.721zm32.874-53.679c0 13.554-11.027 24.582-24.582 24.582h-229.577c-13.554 0-24.581-11.027-24.581-24.582v-274.188c0-13.554 11.027-24.581 24.581-24.581h229.577c13.555 0 24.582 11.027 24.582 24.581z"/><path d="m172.335 178.609c-14.025 0-25.436 11.41-25.436 25.436v145.791c0 4.142 3.358 7.5 7.5 7.5s7.5-3.358 7.5-7.5v-145.792c0-5.754 4.681-10.436 10.436-10.436s10.436 4.681 10.436 10.436v213.293c0 5.754-4.681 10.436-10.436 10.436s-10.436-4.681-10.436-10.436v-32.419c0-4.142-3.358-7.5-7.5-7.5s-7.5 3.358-7.5 7.5v32.419c0 14.025 11.41 25.436 25.436 25.436s25.436-11.41 25.436-25.436v-213.293c-.001-14.025-11.411-25.435-25.436-25.435z"/><path d="m256 178.609c-14.025 0-25.436 11.41-25.436 25.436v213.293c0 14.025 11.41 25.436 25.436 25.436s25.436-11.41 25.436-25.436v-213.294c-.001-14.025-11.411-25.435-25.436-25.435zm10.435 238.729c0 5.754-4.682 10.436-10.436 10.436s-10.436-4.681-10.436-10.436v-213.294c0-5.754 4.681-10.436 10.436-10.436 5.754 0 10.436 4.681 10.436 10.436z"/><path d="m339.665 178.609c-14.025 0-25.436 11.41-25.436 25.436v29.631c0 4.142 3.357 7.5 7.5 7.5s7.5-3.358 7.5-7.5v-29.631c0-5.754 4.682-10.436 10.436-10.436s10.436 4.681 10.436 10.436v213.293c0 5.754-4.682 10.436-10.436 10.436s-10.436-4.681-10.436-10.436v-148.579c0-4.142-3.357-7.5-7.5-7.5s-7.5 3.358-7.5 7.5v148.579c0 14.025 11.41 25.436 25.436 25.436s25.436-11.41 25.436-25.436v-213.294c-.001-14.025-11.411-25.435-25.436-25.435z"/></svg>