<svg xmlns="http://www.w3.org/2000/svg" viewBox="0 0 368.12 89"><defs><style>.cls-1{fill:#032a4c;stroke:#032a4c;}</style></defs><title>logo_biru_1</title><g id="Layer_2" data-name="Layer 2"><g id="Layer_1-2" data-name="Layer 1"><path class="cls-1" d="M57.42,81.8a3,3,0,0,1,2.4,1,3.49,3.49,0,0,1,1,2.4,3.42,3.42,0,0,1-3.3,3.3,25.48,25.48,0,0,1-12.7-3.2,26.08,26.08,0,0,1-8.7-8.2c-3.8-5.6-6.4-13.1-7.8-22.4a23.45,23.45,0,0,0-18-19.3,2.81,2.81,0,0,0-2.2.5,2.38,2.38,0,0,0-.9,2V58.3a2.9,2.9,0,0,1-1,2.3,3.26,3.26,0,0,1-2.3,1,3.49,3.49,0,0,1-2.4-1,3.69,3.69,0,0,1-1-2.4V4.6a2.72,2.72,0,0,1,.9-2.4,3.26,3.26,0,0,1,2.3-1,3,3,0,0,1,2.4,1,3.25,3.25,0,0,1,1,2.4v20a2.33,2.33,0,0,0,1,2,2.64,2.64,0,0,0,2.3.4,24.43,24.43,0,0,0,8.7-4.7A23.09,23.09,0,0,0,25,14.4a22.39,22.39,0,0,0,2.2-9.9,3.25,3.25,0,0,1,1-2.4,3.69,3.69,0,0,1,2.4-1,3.26,3.26,0,0,1,2.3,1,3.77,3.77,0,0,1,1,2.4,30.2,30.2,0,0,1-8.8,21.3,32.69,32.69,0,0,1-3.5,3,2.76,2.76,0,0,0-1.1,2.1,2.59,2.59,0,0,0,1.2,2.1,31.55,31.55,0,0,1,2.9,2.2,30.13,30.13,0,0,1,10.2,18.3c1.3,8.3,3.5,14.8,6.8,19.6C45.52,79,50.72,81.8,57.42,81.8Z"/><path class="cls-1" d="M62.42,48.8A16,16,0,0,1,54,46.5a16.72,16.72,0,0,1-6.1-6,16,16,0,0,1-2.3-8.4V4.6a2.9,2.9,0,0,1,1-2.3,3.25,3.25,0,0,1,2.4-1,2.9,2.9,0,0,1,2.3,1,2.9,2.9,0,0,1,1,2.3V32a9.9,9.9,0,0,0,2.9,7.1,10.14,10.14,0,0,0,14.2,0,9.76,9.76,0,0,0,3-7.1V4.6a2.9,2.9,0,0,1,1-2.3,3.25,3.25,0,0,1,2.4-1,2.9,2.9,0,0,1,2.3,1,2.9,2.9,0,0,1,1,2.3V32a16,16,0,0,1-2.3,8.4,17,17,0,0,1-6.1,6.1A14.62,14.62,0,0,1,62.42,48.8Z"/><path class="cls-1" d="M120.92,61.5a3.35,3.35,0,0,1-3-1.9L99.12,21.7c-.1-.3-.3-.4-.6-.5a.83.83,0,0,0-.8.2.78.78,0,0,0-.3.7V58a3.25,3.25,0,0,1-1,2.4,3,3,0,0,1-2.4,1,4.29,4.29,0,0,1-2.4-1,3.17,3.17,0,0,1-.9-2.3V3.9a3.14,3.14,0,0,1,.7-2.1A3.47,3.47,0,0,1,93.32.6a3.07,3.07,0,0,1,2.1.2A3.32,3.32,0,0,1,97,2.3l18.8,37.9c.1.3.3.4.6.5a.83.83,0,0,0,.8-.2,1,1,0,0,0,.3-.8V3.9a3.1,3.1,0,0,1,1-2.4,3.26,3.26,0,0,1,4.7,0,3.26,3.26,0,0,1,1,2.3V58a3.61,3.61,0,0,1-.6,2,3,3,0,0,1-1.7,1.2A1.31,1.31,0,0,1,120.92,61.5Z"/><path class="cls-1" d="M152.32,62.3a17.72,17.72,0,0,1-8.5-2.3,17,17,0,0,1-6-6.2,16.58,16.58,0,0,1-2.2-8.5V32.1a3.1,3.1,0,0,1,1-2.4,3.25,3.25,0,0,1,2.4-1,3.73,3.73,0,0,1,2.3,1,3.26,3.26,0,0,1,1,2.3V45.3a9.81,9.81,0,0,0,2.8,7.1,9.91,9.91,0,0,0,7.1,3.1,9.8,9.8,0,0,0,7.2-2.9,9.51,9.51,0,0,0,2.9-7.1V12.8a4.78,4.78,0,0,0-4.8-4.8h-18.6a3.1,3.1,0,0,1-2.4-1,3.32,3.32,0,0,1-1-2.5,3.26,3.26,0,0,1,1-2.3,3.26,3.26,0,0,1,2.3-1h26.8a2.9,2.9,0,0,1,2.3,1,2.9,2.9,0,0,1,1,2.3v41a16.67,16.67,0,0,1-2.3,8.5,17,17,0,0,1-6.1,6.1A15.17,15.17,0,0,1,152.32,62.3Z"/><path class="cls-1" d="M197.52,48.8a16,16,0,0,1-8.4-2.3,17.81,17.81,0,0,1-6.1-6.1,16,16,0,0,1-2.3-8.4V4.6a2.9,2.9,0,0,1,1-2.3,3.25,3.25,0,0,1,2.4-1,2.9,2.9,0,0,1,2.3,1,2.9,2.9,0,0,1,1,2.3V32a9.9,9.9,0,0,0,2.9,7.1,10.14,10.14,0,0,0,14.2,0,9.76,9.76,0,0,0,3-7.1V4.6a2.9,2.9,0,0,1,1-2.3,3.25,3.25,0,0,1,2.4-1,2.9,2.9,0,0,1,2.3,1,2.9,2.9,0,0,1,1,2.3V32a16,16,0,0,1-2.3,8.4,17,17,0,0,1-6.1,6.1A14.62,14.62,0,0,1,197.52,48.8Z"/><path class="cls-1" d="M256,61.5a3.35,3.35,0,0,1-3-1.9l-18.8-37.9c-.1-.3-.3-.4-.6-.5a.83.83,0,0,0-.8.2.78.78,0,0,0-.3.7V58a3.25,3.25,0,0,1-1,2.4,3,3,0,0,1-2.4,1,4.29,4.29,0,0,1-2.4-1,3.17,3.17,0,0,1-.9-2.3V3.9a3.14,3.14,0,0,1,.7-2.1,3.47,3.47,0,0,1,1.9-1.2,2.82,2.82,0,0,1,2.2.3,3.32,3.32,0,0,1,1.6,1.5L251,40.3c.1.3.3.4.6.5a.83.83,0,0,0,.8-.2,1,1,0,0,0,.3-.8V3.9a3.1,3.1,0,0,1,1-2.4,3.26,3.26,0,0,1,4.7,0,3.26,3.26,0,0,1,1,2.3V58a3.61,3.61,0,0,1-.6,2,3,3,0,0,1-1.7,1.2A1.68,1.68,0,0,1,256,61.5Z"/><path class="cls-1" d="M301.12,68.5a3.1,3.1,0,0,1-2.4-1,3.69,3.69,0,0,1-1-2.4V62.5a1.9,1.9,0,0,0-1-1.8,2.2,2.2,0,0,0-2.1-.2,15.27,15.27,0,0,1-6.4,1.3,17.77,17.77,0,0,1-8.8-2.3,19,19,0,0,1-6.3-6.3,16.78,16.78,0,0,1-2.3-8.8v-26a16.4,16.4,0,0,1,2.3-8.5,18.1,18.1,0,0,1,6.1-6.2,16.69,16.69,0,0,1,25.1,14.4,3.1,3.1,0,0,1-1,2.4,3.26,3.26,0,0,1-2.3,1,3,3,0,0,1-2.4-1,3.69,3.69,0,0,1-1-2.4,9.73,9.73,0,0,0-2.9-7.1,10.22,10.22,0,0,0-7.2-3,9.91,9.91,0,0,0-7.1,3.1,9.81,9.81,0,0,0-2.8,7.1V44.3A10.59,10.59,0,0,0,288.32,55a9,9,0,0,0,7-3.1,2,2,0,0,0,.3-2.3,2.05,2.05,0,0,0-1.9-1.3h-6a3,3,0,0,1-2.4-1,3.35,3.35,0,0,1,2.3-5.7H301a3.42,3.42,0,0,1,3.3,3.3V65a2.9,2.9,0,0,1-1,2.3A2.32,2.32,0,0,1,301.12,68.5Z"/><path class="cls-1" d="M319.22,48.9a3.25,3.25,0,0,0,2.4-1,3.69,3.69,0,0,0,1-2.4V4.6a2.9,2.9,0,0,0-1-2.3,3,3,0,0,0-2.4-1,3.25,3.25,0,0,0-2.4,1,3.26,3.26,0,0,0-1,2.3V45.5a3.41,3.41,0,0,0,3.4,3.4Z"/><path class="cls-1" d="M364.22,61.5a3.35,3.35,0,0,1-3-1.9l-18.8-37.9c-.1-.3-.3-.4-.6-.5a.83.83,0,0,0-.8.2.78.78,0,0,0-.3.7V58a3.25,3.25,0,0,1-1,2.4,3,3,0,0,1-2.4,1,4,4,0,0,1-2.4-1,3.17,3.17,0,0,1-.9-2.3V3.9a3.14,3.14,0,0,1,.7-2.1,3.47,3.47,0,0,1,1.9-1.2,2.82,2.82,0,0,1,2.2.3,3.32,3.32,0,0,1,1.6,1.5l18.8,37.9c.1.3.3.4.6.5a.83.83,0,0,0,.8-.2,1,1,0,0,0,.3-.8V3.9a3.1,3.1,0,0,1,1-2.4,3.26,3.26,0,0,1,4.7,0,3.26,3.26,0,0,1,1,2.3V58a3.61,3.61,0,0,1-.6,2,3,3,0,0,1-1.7,1.2A1.68,1.68,0,0,1,364.22,61.5Z"/><path class="cls-1" d="M57.42,81.8a3,3,0,0,1,2.4,1,3.49,3.49,0,0,1,1,2.4,3.42,3.42,0,0,1-3.3,3.3,25.48,25.48,0,0,1-12.7-3.2,26.08,26.08,0,0,1-8.7-8.2c-3.8-5.6-6.4-13.1-7.8-22.4a23.45,23.45,0,0,0-18-19.3,2.81,2.81,0,0,0-2.2.5,2.38,2.38,0,0,0-.9,2V58.3a2.9,2.9,0,0,1-1,2.3,3.26,3.26,0,0,1-2.3,1,3.49,3.49,0,0,1-2.4-1,3.69,3.69,0,0,1-1-2.4V4.6a2.72,2.72,0,0,1,.9-2.4,3.26,3.26,0,0,1,2.3-1,3,3,0,0,1,2.4,1,3.25,3.25,0,0,1,1,2.4v20a2.33,2.33,0,0,0,1,2,2.64,2.64,0,0,0,2.3.4,24.43,24.43,0,0,0,8.7-4.7A23.09,23.09,0,0,0,25,14.4a22.39,22.39,0,0,0,2.2-9.9,3.25,3.25,0,0,1,1-2.4,3.69,3.69,0,0,1,2.4-1,3.26,3.26,0,0,1,2.3,1,3.77,3.77,0,0,1,1,2.4,30.2,30.2,0,0,1-8.8,21.3,32.69,32.69,0,0,1-3.5,3,2.76,2.76,0,0,0-1.1,2.1,2.59,2.59,0,0,0,1.2,2.1,31.55,31.55,0,0,1,2.9,2.2,30.13,30.13,0,0,1,10.2,18.3c1.3,8.3,3.5,14.8,6.8,19.6C45.52,79,50.72,81.8,57.42,81.8Z"/><path class="cls-1" d="M62.42,48.8A16,16,0,0,1,54,46.5a16.72,16.72,0,0,1-6.1-6,16,16,0,0,1-2.3-8.4V4.6a2.9,2.9,0,0,1,1-2.3,3.25,3.25,0,0,1,2.4-1,2.9,2.9,0,0,1,2.3,1,2.9,2.9,0,0,1,1,2.3V32a9.9,9.9,0,0,0,2.9,7.1,10.14,10.14,0,0,0,14.2,0,9.76,9.76,0,0,0,3-7.1V4.6a2.9,2.9,0,0,1,1-2.3,3.25,3.25,0,0,1,2.4-1,2.9,2.9,0,0,1,2.3,1,2.9,2.9,0,0,1,1,2.3V32a16,16,0,0,1-2.3,8.4,17,17,0,0,1-6.1,6.1A14.62,14.62,0,0,1,62.42,48.8Z"/><path class="cls-1" d="M120.92,61.5a3.35,3.35,0,0,1-3-1.9L99.12,21.7c-.1-.3-.3-.4-.6-.5a.83.83,0,0,0-.8.2.78.78,0,0,0-.3.7V58a3.25,3.25,0,0,1-1,2.4,3,3,0,0,1-2.4,1,4.29,4.29,0,0,1-2.4-1,3.17,3.17,0,0,1-.9-2.3V3.9a3.14,3.14,0,0,1,.7-2.1A3.47,3.47,0,0,1,93.32.6a3.07,3.07,0,0,1,2.1.2A3.32,3.32,0,0,1,97,2.3l18.8,37.9c.1.3.3.4.6.5a.83.83,0,0,0,.8-.2,1,1,0,0,0,.3-.8V3.9a3.1,3.1,0,0,1,1-2.4,3.26,3.26,0,0,1,4.7,0,3.26,3.26,0,0,1,1,2.3V58a3.61,3.61,0,0,1-.6,2,3,3,0,0,1-1.7,1.2A1.31,1.31,0,0,1,120.92,61.5Z"/><path class="cls-1" d="M152.32,62.3a17.72,17.72,0,0,1-8.5-2.3,17,17,0,0,1-6-6.2,16.58,16.58,0,0,1-2.2-8.5V32.1a3.1,3.1,0,0,1,1-2.4,3.25,3.25,0,0,1,2.4-1,3.73,3.73,0,0,1,2.3,1,3.26,3.26,0,0,1,1,2.3V45.3a9.81,9.81,0,0,0,2.8,7.1,9.91,9.91,0,0,0,7.1,3.1,9.8,9.8,0,0,0,7.2-2.9,9.51,9.51,0,0,0,2.9-7.1V12.8a4.78,4.78,0,0,0-4.8-4.8h-18.6a3.1,3.1,0,0,1-2.4-1,3.32,3.32,0,0,1-1-2.5,3.26,3.26,0,0,1,1-2.3,3.26,3.26,0,0,1,2.3-1h26.8a2.9,2.9,0,0,1,2.3,1,2.9,2.9,0,0,1,1,2.3v41a16.67,16.67,0,0,1-2.3,8.5,17,17,0,0,1-6.1,6.1A15.17,15.17,0,0,1,152.32,62.3Z"/><path class="cls-1" d="M197.52,48.8a16,16,0,0,1-8.4-2.3,17.81,17.81,0,0,1-6.1-6.1,16,16,0,0,1-2.3-8.4V4.6a2.9,2.9,0,0,1,1-2.3,3.25,3.25,0,0,1,2.4-1,2.9,2.9,0,0,1,2.3,1,2.9,2.9,0,0,1,1,2.3V32a9.9,9.9,0,0,0,2.9,7.1,10.14,10.14,0,0,0,14.2,0,9.76,9.76,0,0,0,3-7.1V4.6a2.9,2.9,0,0,1,1-2.3,3.25,3.25,0,0,1,2.4-1,2.9,2.9,0,0,1,2.3,1,2.9,2.9,0,0,1,1,2.3V32a16,16,0,0,1-2.3,8.4,17,17,0,0,1-6.1,6.1A14.62,14.62,0,0,1,197.52,48.8Z"/><path class="cls-1" d="M256,61.5a3.35,3.35,0,0,1-3-1.9l-18.8-37.9c-.1-.3-.3-.4-.6-.5a.83.83,0,0,0-.8.2.78.78,0,0,0-.3.7V58a3.25,3.25,0,0,1-1,2.4,3,3,0,0,1-2.4,1,4.29,4.29,0,0,1-2.4-1,3.17,3.17,0,0,1-.9-2.3V3.9a3.14,3.14,0,0,1,.7-2.1,3.47,3.47,0,0,1,1.9-1.2,2.82,2.82,0,0,1,2.2.3,3.32,3.32,0,0,1,1.6,1.5L251,40.3c.1.3.3.4.6.5a.83.83,0,0,0,.8-.2,1,1,0,0,0,.3-.8V3.9a3.1,3.1,0,0,1,1-2.4,3.26,3.26,0,0,1,4.7,0,3.26,3.26,0,0,1,1,2.3V58a3.61,3.61,0,0,1-.6,2,3,3,0,0,1-1.7,1.2A1.68,1.68,0,0,1,256,61.5Z"/><path class="cls-1" d="M301.12,68.5a3.1,3.1,0,0,1-2.4-1,3.69,3.69,0,0,1-1-2.4V62.5a1.9,1.9,0,0,0-1-1.8,2.2,2.2,0,0,0-2.1-.2,15.27,15.27,0,0,1-6.4,1.3,17.77,17.77,0,0,1-8.8-2.3,19,19,0,0,1-6.3-6.3,16.78,16.78,0,0,1-2.3-8.8v-26a16.4,16.4,0,0,1,2.3-8.5,18.1,18.1,0,0,1,6.1-6.2,16.69,16.69,0,0,1,25.1,14.4,3.1,3.1,0,0,1-1,2.4,3.26,3.26,0,0,1-2.3,1,3,3,0,0,1-2.4-1,3.69,3.69,0,0,1-1-2.4,9.73,9.73,0,0,0-2.9-7.1,10.22,10.22,0,0,0-7.2-3,9.91,9.91,0,0,0-7.1,3.1,9.81,9.81,0,0,0-2.8,7.1V44.3A10.59,10.59,0,0,0,288.32,55a9,9,0,0,0,7-3.1,2,2,0,0,0,.3-2.3,2.05,2.05,0,0,0-1.9-1.3h-6a3,3,0,0,1-2.4-1,3.35,3.35,0,0,1,2.3-5.7H301a3.42,3.42,0,0,1,3.3,3.3V65a2.9,2.9,0,0,1-1,2.3A2.32,2.32,0,0,1,301.12,68.5Z"/><path class="cls-1" d="M319.22,48.9a3.25,3.25,0,0,0,2.4-1,3.69,3.69,0,0,0,1-2.4V4.6a2.9,2.9,0,0,0-1-2.3,3,3,0,0,0-2.4-1,3.25,3.25,0,0,0-2.4,1,3.26,3.26,0,0,0-1,2.3V45.5a3.41,3.41,0,0,0,3.4,3.4Z"/><path class="cls-1" d="M364.22,61.5a3.35,3.35,0,0,1-3-1.9l-18.8-37.9c-.1-.3-.3-.4-.6-.5a.83.83,0,0,0-.8.2.78.78,0,0,0-.3.7V58a3.25,3.25,0,0,1-1,2.4,3,3,0,0,1-2.4,1,4,4,0,0,1-2.4-1,3.17,3.17,0,0,1-.9-2.3V3.9a3.14,3.14,0,0,1,.7-2.1,3.47,3.47,0,0,1,1.9-1.2,2.82,2.82,0,0,1,2.2.3,3.32,3.32,0,0,1,1.6,1.5l18.8,37.9c.1.3.3.4.6.5a.83.83,0,0,0,.8-.2,1,1,0,0,0,.3-.8V3.9a3.1,3.1,0,0,1,1-2.4,3.26,3.26,0,0,1,4.7,0,3.26,3.26,0,0,1,1,2.3V58a3.61,3.61,0,0,1-.6,2,3,3,0,0,1-1.7,1.2A1.68,1.68,0,0,1,364.22,61.5Z"/></g></g></svg>