<?xml version="1.0" encoding="utf-8"?>
<!-- Generator: Adobe Illustrator 22.1.0, SVG Export Plug-In . SVG Version: 6.00 Build 0)  -->
<svg version="1.1" id="Layer_1" xmlns="http://www.w3.org/2000/svg" xmlns:xlink="http://www.w3.org/1999/xlink" x="0px" y="0px"
	 viewBox="0 0 370 90" style="enable-background:new 0 0 370 90;" xml:space="preserve">
<style type="text/css">
	.st0{fill:#FFFFFF;stroke:#FFFFFF;}
</style>
<path class="st0" d="M58,82.3c1,0,1.8,0.3,2.4,1c0.6,0.6,1,1.5,1,2.4c0,0.9-0.4,1.7-1,2.3c-0.6,0.6-1.4,1-2.3,1
	c-4.7,0-9-1.1-12.7-3.2c-3.4-1.9-6.3-4.7-8.7-8.2c-3.8-5.6-6.4-13.1-7.8-22.4c-0.8-4.9-2.9-9.1-6.1-12.5c-3.2-3.4-7.2-5.7-11.9-6.8
	c-0.8-0.1-1.6,0-2.2,0.5c-0.6,0.5-0.9,1.1-0.9,2v20.4c0,0.9-0.3,1.7-1,2.3c-0.6,0.6-1.4,1-2.3,1c-0.9,0-1.8-0.4-2.4-1
	c-0.6-0.7-1-1.5-1-2.4V32.2c0-0.1,0-0.2,0-0.3c0-0.1,0-0.2,0-0.3V5.1C1,4.1,1.3,3.4,2,2.7c0.6-0.6,1.4-1,2.3-1c1,0,1.8,0.3,2.4,1
	c0.7,0.7,1,1.5,1,2.4v20c0,0.8,0.3,1.5,1,2c0.7,0.5,1.4,0.6,2.3,0.4c3.3-1,6.2-2.6,8.7-4.7c2.5-2.2,4.5-4.8,5.9-7.9
	c1.5-3.1,2.2-6.4,2.2-9.9c0-0.9,0.3-1.7,1-2.4c0.7-0.6,1.5-1,2.4-1c0.9,0,1.7,0.4,2.3,1c0.6,0.6,0.9,1.4,1,2.4
	c-0.1,8.3-3.1,15.4-8.8,21.3c-1.1,1.1-2.3,2.1-3.5,3c-0.7,0.6-1.1,1.3-1.1,2.1c0,0.8,0.4,1.5,1.2,2.1c1,0.7,2,1.4,2.9,2.2
	c5.6,4.9,9,11,10.2,18.3c1.3,8.3,3.5,14.8,6.8,19.6C46.1,79.5,51.3,82.3,58,82.3z"/>
<path class="st0" d="M63,49.3c-3.1,0-5.9-0.8-8.4-2.3C52,45.5,50,43.5,48.5,41c-1.5-2.5-2.3-5.3-2.3-8.4V5.1c0-0.9,0.3-1.7,1-2.3
	c0.7-0.7,1.5-1,2.4-1c0.9,0,1.7,0.3,2.3,1c0.7,0.6,1,1.4,1,2.3v27.4c0,2.8,1,5.1,2.9,7.1c2,2,4.4,2.9,7.1,2.9c2.8,0,5.2-1,7.1-2.9
	c2-2,3-4.4,3-7.1V5.1c0-0.9,0.3-1.7,1-2.3c0.7-0.7,1.5-1,2.4-1s1.7,0.3,2.3,1c0.7,0.6,1,1.4,1,2.3v27.4c0,3.1-0.8,5.9-2.3,8.4
	c-1.5,2.5-3.5,4.6-6.1,6.1C68.9,48.6,66.1,49.3,63,49.3z"/>
<path class="st0" d="M121.5,62c-1.4-0.1-2.4-0.7-3-1.9L99.7,22.2c-0.1-0.3-0.3-0.4-0.6-0.5c-0.3-0.1-0.5,0-0.8,0.2
	c-0.2,0.1-0.3,0.4-0.3,0.7v35.9c0,0.9-0.3,1.7-1,2.4c-0.6,0.7-1.4,1-2.4,1c-0.9-0.1-1.7-0.4-2.4-1c-0.6-0.6-0.9-1.4-0.9-2.3V4.4
	c0-0.8,0.2-1.5,0.7-2.1c0.5-0.6,1.1-1,1.9-1.2C94.6,0.9,95.3,1,96,1.3c0.7,0.3,1.2,0.8,1.6,1.5l18.8,37.9c0.1,0.3,0.3,0.4,0.6,0.5
	c0.3,0.1,0.5,0,0.8-0.2c0.2-0.2,0.3-0.4,0.3-0.8V4.4c0-0.9,0.3-1.8,1-2.4c0.7-0.7,1.5-1,2.4-1c0.9,0,1.7,0.4,2.3,1
	c0.6,0.6,1,1.4,1,2.3v54.2c0,0.7-0.2,1.4-0.6,2c-0.4,0.6-1,1-1.7,1.2C122.2,62,121.8,62,121.5,62z"/>
<path class="st0" d="M152.9,62.8c-3.1-0.1-5.9-0.8-8.5-2.3c-2.5-1.5-4.5-3.6-6-6.2c-1.5-2.6-2.2-5.4-2.2-8.5V32.6
	c0-0.9,0.3-1.8,1-2.4c0.7-0.7,1.5-1,2.4-1c0.9,0.1,1.7,0.4,2.3,1c0.6,0.6,1,1.4,1,2.3v13.3c0,2.8,0.9,5.1,2.8,7.1
	c1.9,2,4.3,3,7.1,3.1c2.9,0,5.3-1,7.2-2.9c2-2,2.9-4.3,2.9-7.1V13.3c0-1.3-0.5-2.5-1.4-3.4c-0.9-0.9-2.1-1.4-3.4-1.4h-18.6
	c-0.9,0-1.8-0.3-2.4-1c-0.7-0.7-1-1.5-1-2.5c0-0.9,0.4-1.7,1-2.3c0.6-0.6,1.4-1,2.3-1h26.8c0.9,0,1.7,0.3,2.3,1c0.7,0.6,1,1.4,1,2.3
	V46c0,3.1-0.8,5.9-2.3,8.5c-1.5,2.5-3.5,4.6-6.1,6.1C158.9,62,156.1,62.8,152.9,62.8z"/>
<path class="st0" d="M198.1,49.3c-3.1,0-5.9-0.8-8.4-2.3c-2.5-1.5-4.6-3.6-6.1-6.1c-1.5-2.5-2.3-5.3-2.3-8.4V5.1
	c0-0.9,0.3-1.7,1-2.3c0.7-0.7,1.5-1,2.4-1c0.9,0,1.7,0.3,2.3,1c0.7,0.6,1,1.4,1,2.3v27.4c0,2.8,1,5.1,2.9,7.1c2,2,4.4,2.9,7.1,2.9
	c2.8,0,5.2-1,7.1-2.9c2-2,3-4.4,3-7.1V5.1c0-0.9,0.3-1.7,1-2.3c0.7-0.7,1.5-1,2.4-1c0.9,0,1.7,0.3,2.3,1c0.7,0.6,1,1.4,1,2.3v27.4
	c0,3.1-0.8,5.9-2.3,8.4s-3.5,4.6-6.1,6.1C204,48.6,201.2,49.3,198.1,49.3z"/>
<path class="st0" d="M256.6,62c-1.4-0.1-2.4-0.7-3-1.9l-18.8-37.9c-0.1-0.3-0.3-0.4-0.6-0.5c-0.3-0.1-0.5,0-0.8,0.2
	c-0.2,0.1-0.3,0.4-0.3,0.7v35.9c0,0.9-0.3,1.7-1,2.4c-0.6,0.7-1.4,1-2.4,1c-0.9-0.1-1.7-0.4-2.4-1c-0.6-0.6-0.9-1.4-0.9-2.3V4.4
	c0-0.8,0.2-1.5,0.7-2.1c0.5-0.6,1.1-1,1.9-1.2c0.8-0.2,1.5-0.1,2.2,0.3c0.7,0.3,1.2,0.8,1.6,1.5l18.8,37.9c0.1,0.3,0.3,0.4,0.6,0.5
	c0.3,0.1,0.5,0,0.8-0.2c0.2-0.2,0.3-0.4,0.3-0.8V4.4c0-0.9,0.3-1.8,1-2.4c0.7-0.7,1.5-1,2.4-1c0.9,0,1.7,0.4,2.3,1
	c0.6,0.6,1,1.4,1,2.3v54.2c0,0.7-0.2,1.4-0.6,2c-0.4,0.6-1,1-1.7,1.2C257.3,62,256.9,62,256.6,62z"/>
<path class="st0" d="M301.7,69c-0.9,0-1.8-0.3-2.4-1c-0.6-0.7-1-1.5-1-2.4V63c0-0.8-0.3-1.4-1-1.8c-0.6-0.4-1.3-0.5-2.1-0.2
	c-2,0.9-4.1,1.3-6.4,1.3c-3.2,0-6.1-0.8-8.8-2.3c-2.6-1.6-4.7-3.7-6.3-6.3c-1.6-2.7-2.3-5.6-2.3-8.8v-26c0-3.1,0.8-6,2.3-8.5
	c1.5-2.6,3.6-4.6,6.1-6.2c2.5-1.5,5.4-2.3,8.5-2.3C293,2,296.9,3.7,300,6.8c3.2,3.1,4.8,7.1,4.9,11.8c0,0.9-0.3,1.8-1,2.4
	c-0.6,0.6-1.4,1-2.3,1c-1,0-1.8-0.3-2.4-1c-0.6-0.7-1-1.5-1-2.4c0-2.8-1-5.2-2.9-7.1c-2-2-4.4-2.9-7.2-3c-2.8,0.1-5.2,1.1-7.1,3.1
	c-1.9,2-2.8,4.3-2.8,7.1v26.1c0,3,1,5.5,3.1,7.6c2.1,2.1,4.6,3.1,7.6,3.1c2.8,0,5.1-1,7-3.1c0.6-0.8,0.7-1.5,0.3-2.3
	c-0.4-0.8-1-1.3-1.9-1.3h-6c-1,0-1.8-0.3-2.4-1c-0.7-0.7-1-1.5-1-2.4c0-0.9,0.4-1.7,1-2.3c0.6-0.6,1.4-1,2.3-1h13.4
	c0.9,0,1.7,0.3,2.3,1c0.7,0.6,1,1.4,1,2.3v20.1c0,0.9-0.3,1.7-1,2.3C303.4,68.7,302.6,69,301.7,69z"/>
<path class="st0" d="M319.8,49.4c0.9,0,1.7-0.3,2.4-1c0.6-0.7,1-1.5,1-2.4V5.1c0-0.9-0.3-1.7-1-2.3c-0.6-0.7-1.4-1-2.4-1
	c-0.9,0-1.7,0.3-2.4,1c-0.6,0.6-1,1.4-1,2.3V46c0,0.9,0.3,1.7,1,2.4C318.1,49.1,318.9,49.4,319.8,49.4z"/>
<path class="st0" d="M364.8,62c-1.4-0.1-2.4-0.7-3-1.9L343,22.2c-0.1-0.3-0.3-0.4-0.6-0.5c-0.3-0.1-0.5,0-0.8,0.2
	c-0.2,0.1-0.3,0.4-0.3,0.7v35.9c0,0.9-0.3,1.7-1,2.4c-0.6,0.7-1.4,1-2.4,1c-1-0.1-1.7-0.4-2.4-1c-0.6-0.6-0.9-1.4-0.9-2.3V4.4
	c0-0.8,0.2-1.5,0.7-2.1c0.5-0.6,1.1-1,1.9-1.2c0.8-0.2,1.5-0.1,2.2,0.3c0.7,0.3,1.2,0.8,1.6,1.5l18.8,37.9c0.1,0.3,0.3,0.4,0.6,0.5
	c0.3,0.1,0.5,0,0.8-0.2c0.2-0.2,0.3-0.4,0.3-0.8V4.4c0-0.9,0.3-1.8,1-2.4c0.7-0.7,1.5-1,2.4-1c0.9,0,1.7,0.4,2.3,1
	c0.6,0.6,1,1.4,1,2.3v54.2c0,0.7-0.2,1.4-0.6,2c-0.4,0.6-1,1-1.7,1.2C365.5,62,365.1,62,364.8,62z"/>
<path class="st0" d="M58,82.3c1,0,1.8,0.3,2.4,1c0.6,0.6,1,1.5,1,2.4c0,0.9-0.4,1.7-1,2.3c-0.6,0.6-1.4,1-2.3,1
	c-4.7,0-9-1.1-12.7-3.2c-3.4-1.9-6.3-4.7-8.7-8.2c-3.8-5.6-6.4-13.1-7.8-22.4c-0.8-4.9-2.9-9.1-6.1-12.5c-3.2-3.4-7.2-5.7-11.9-6.8
	c-0.8-0.1-1.6,0-2.2,0.5c-0.6,0.5-0.9,1.1-0.9,2v20.4c0,0.9-0.3,1.7-1,2.3c-0.6,0.6-1.4,1-2.3,1c-0.9,0-1.8-0.4-2.4-1
	c-0.6-0.7-1-1.5-1-2.4V32.2c0-0.1,0-0.2,0-0.3c0-0.1,0-0.2,0-0.3V5.1C1,4.1,1.3,3.4,2,2.7c0.6-0.6,1.4-1,2.3-1c1,0,1.8,0.3,2.4,1
	c0.7,0.7,1,1.5,1,2.4v20c0,0.8,0.3,1.5,1,2c0.7,0.5,1.4,0.6,2.3,0.4c3.3-1,6.2-2.6,8.7-4.7c2.5-2.2,4.5-4.8,5.9-7.9
	c1.5-3.1,2.2-6.4,2.2-9.9c0-0.9,0.3-1.7,1-2.4c0.7-0.6,1.5-1,2.4-1c0.9,0,1.7,0.4,2.3,1c0.6,0.6,0.9,1.4,1,2.4
	c-0.1,8.3-3.1,15.4-8.8,21.3c-1.1,1.1-2.3,2.1-3.5,3c-0.7,0.6-1.1,1.3-1.1,2.1c0,0.8,0.4,1.5,1.2,2.1c1,0.7,2,1.4,2.9,2.2
	c5.6,4.9,9,11,10.2,18.3c1.3,8.3,3.5,14.8,6.8,19.6C46.1,79.5,51.3,82.3,58,82.3z"/>
<path class="st0" d="M63,49.3c-3.1,0-5.9-0.8-8.4-2.3C52,45.5,50,43.5,48.5,41c-1.5-2.5-2.3-5.3-2.3-8.4V5.1c0-0.9,0.3-1.7,1-2.3
	c0.7-0.7,1.5-1,2.4-1c0.9,0,1.7,0.3,2.3,1c0.7,0.6,1,1.4,1,2.3v27.4c0,2.8,1,5.1,2.9,7.1c2,2,4.4,2.9,7.1,2.9c2.8,0,5.2-1,7.1-2.9
	c2-2,3-4.4,3-7.1V5.1c0-0.9,0.3-1.7,1-2.3c0.7-0.7,1.5-1,2.4-1s1.7,0.3,2.3,1c0.7,0.6,1,1.4,1,2.3v27.4c0,3.1-0.8,5.9-2.3,8.4
	c-1.5,2.5-3.5,4.6-6.1,6.1C68.9,48.6,66.1,49.3,63,49.3z"/>
<path class="st0" d="M121.5,62c-1.4-0.1-2.4-0.7-3-1.9L99.7,22.2c-0.1-0.3-0.3-0.4-0.6-0.5c-0.3-0.1-0.5,0-0.8,0.2
	c-0.2,0.1-0.3,0.4-0.3,0.7v35.9c0,0.9-0.3,1.7-1,2.4c-0.6,0.7-1.4,1-2.4,1c-0.9-0.1-1.7-0.4-2.4-1c-0.6-0.6-0.9-1.4-0.9-2.3V4.4
	c0-0.8,0.2-1.5,0.7-2.1c0.5-0.6,1.1-1,1.9-1.2C94.6,0.9,95.3,1,96,1.3c0.7,0.3,1.2,0.8,1.6,1.5l18.8,37.9c0.1,0.3,0.3,0.4,0.6,0.5
	c0.3,0.1,0.5,0,0.8-0.2c0.2-0.2,0.3-0.4,0.3-0.8V4.4c0-0.9,0.3-1.8,1-2.4c0.7-0.7,1.5-1,2.4-1c0.9,0,1.7,0.4,2.3,1
	c0.6,0.6,1,1.4,1,2.3v54.2c0,0.7-0.2,1.4-0.6,2c-0.4,0.6-1,1-1.7,1.2C122.2,62,121.8,62,121.5,62z"/>
<path class="st0" d="M152.9,62.8c-3.1-0.1-5.9-0.8-8.5-2.3c-2.5-1.5-4.5-3.6-6-6.2c-1.5-2.6-2.2-5.4-2.2-8.5V32.6
	c0-0.9,0.3-1.8,1-2.4c0.7-0.7,1.5-1,2.4-1c0.9,0.1,1.7,0.4,2.3,1c0.6,0.6,1,1.4,1,2.3v13.3c0,2.8,0.9,5.1,2.8,7.1
	c1.9,2,4.3,3,7.1,3.1c2.9,0,5.3-1,7.2-2.9c2-2,2.9-4.3,2.9-7.1V13.3c0-1.3-0.5-2.5-1.4-3.4c-0.9-0.9-2.1-1.4-3.4-1.4h-18.6
	c-0.9,0-1.8-0.3-2.4-1c-0.7-0.7-1-1.5-1-2.5c0-0.9,0.4-1.7,1-2.3c0.6-0.6,1.4-1,2.3-1h26.8c0.9,0,1.7,0.3,2.3,1c0.7,0.6,1,1.4,1,2.3
	V46c0,3.1-0.8,5.9-2.3,8.5c-1.5,2.5-3.5,4.6-6.1,6.1C158.9,62,156.1,62.8,152.9,62.8z"/>
<path class="st0" d="M198.1,49.3c-3.1,0-5.9-0.8-8.4-2.3c-2.5-1.5-4.6-3.6-6.1-6.1c-1.5-2.5-2.3-5.3-2.3-8.4V5.1
	c0-0.9,0.3-1.7,1-2.3c0.7-0.7,1.5-1,2.4-1c0.9,0,1.7,0.3,2.3,1c0.7,0.6,1,1.4,1,2.3v27.4c0,2.8,1,5.1,2.9,7.1c2,2,4.4,2.9,7.1,2.9
	c2.8,0,5.2-1,7.1-2.9c2-2,3-4.4,3-7.1V5.1c0-0.9,0.3-1.7,1-2.3c0.7-0.7,1.5-1,2.4-1c0.9,0,1.7,0.3,2.3,1c0.7,0.6,1,1.4,1,2.3v27.4
	c0,3.1-0.8,5.9-2.3,8.4s-3.5,4.6-6.1,6.1C204,48.6,201.2,49.3,198.1,49.3z"/>
<path class="st0" d="M256.6,62c-1.4-0.1-2.4-0.7-3-1.9l-18.8-37.9c-0.1-0.3-0.3-0.4-0.6-0.5c-0.3-0.1-0.5,0-0.8,0.2
	c-0.2,0.1-0.3,0.4-0.3,0.7v35.9c0,0.9-0.3,1.7-1,2.4c-0.6,0.7-1.4,1-2.4,1c-0.9-0.1-1.7-0.4-2.4-1c-0.6-0.6-0.9-1.4-0.9-2.3V4.4
	c0-0.8,0.2-1.5,0.7-2.1c0.5-0.6,1.1-1,1.9-1.2c0.8-0.2,1.5-0.1,2.2,0.3c0.7,0.3,1.2,0.8,1.6,1.5l18.8,37.9c0.1,0.3,0.3,0.4,0.6,0.5
	c0.3,0.1,0.5,0,0.8-0.2c0.2-0.2,0.3-0.4,0.3-0.8V4.4c0-0.9,0.3-1.8,1-2.4c0.7-0.7,1.5-1,2.4-1c0.9,0,1.7,0.4,2.3,1
	c0.6,0.6,1,1.4,1,2.3v54.2c0,0.7-0.2,1.4-0.6,2c-0.4,0.6-1,1-1.7,1.2C257.3,62,256.9,62,256.6,62z"/>
<path class="st0" d="M301.7,69c-0.9,0-1.8-0.3-2.4-1c-0.6-0.7-1-1.5-1-2.4V63c0-0.8-0.3-1.4-1-1.8c-0.6-0.4-1.3-0.5-2.1-0.2
	c-2,0.9-4.1,1.3-6.4,1.3c-3.2,0-6.1-0.8-8.8-2.3c-2.6-1.6-4.7-3.7-6.3-6.3c-1.6-2.7-2.3-5.6-2.3-8.8v-26c0-3.1,0.8-6,2.3-8.5
	c1.5-2.6,3.6-4.6,6.1-6.2c2.5-1.5,5.4-2.3,8.5-2.3C293,2,296.9,3.7,300,6.8c3.2,3.1,4.8,7.1,4.9,11.8c0,0.9-0.3,1.8-1,2.4
	c-0.6,0.6-1.4,1-2.3,1c-1,0-1.8-0.3-2.4-1c-0.6-0.7-1-1.5-1-2.4c0-2.8-1-5.2-2.9-7.1c-2-2-4.4-2.9-7.2-3c-2.8,0.1-5.2,1.1-7.1,3.1
	c-1.9,2-2.8,4.3-2.8,7.1v26.1c0,3,1,5.5,3.1,7.6c2.1,2.1,4.6,3.1,7.6,3.1c2.8,0,5.1-1,7-3.1c0.6-0.8,0.7-1.5,0.3-2.3
	c-0.4-0.8-1-1.3-1.9-1.3h-6c-1,0-1.8-0.3-2.4-1c-0.7-0.7-1-1.5-1-2.4c0-0.9,0.4-1.7,1-2.3c0.6-0.6,1.4-1,2.3-1h13.4
	c0.9,0,1.7,0.3,2.3,1c0.7,0.6,1,1.4,1,2.3v20.1c0,0.9-0.3,1.7-1,2.3C303.4,68.7,302.6,69,301.7,69z"/>
<path class="st0" d="M319.8,49.4c0.9,0,1.7-0.3,2.4-1c0.6-0.7,1-1.5,1-2.4V5.1c0-0.9-0.3-1.7-1-2.3c-0.6-0.7-1.4-1-2.4-1
	c-0.9,0-1.7,0.3-2.4,1c-0.6,0.6-1,1.4-1,2.3V46c0,0.9,0.3,1.7,1,2.4C318.1,49.1,318.9,49.4,319.8,49.4z"/>
<path class="st0" d="M364.8,62c-1.4-0.1-2.4-0.7-3-1.9L343,22.2c-0.1-0.3-0.3-0.4-0.6-0.5c-0.3-0.1-0.5,0-0.8,0.2
	c-0.2,0.1-0.3,0.4-0.3,0.7v35.9c0,0.9-0.3,1.7-1,2.4c-0.6,0.7-1.4,1-2.4,1c-1-0.1-1.7-0.4-2.4-1c-0.6-0.6-0.9-1.4-0.9-2.3V4.4
	c0-0.8,0.2-1.5,0.7-2.1c0.5-0.6,1.1-1,1.9-1.2c0.8-0.2,1.5-0.1,2.2,0.3c0.7,0.3,1.2,0.8,1.6,1.5l18.8,37.9c0.1,0.3,0.3,0.4,0.6,0.5
	c0.3,0.1,0.5,0,0.8-0.2c0.2-0.2,0.3-0.4,0.3-0.8V4.4c0-0.9,0.3-1.8,1-2.4c0.7-0.7,1.5-1,2.4-1c0.9,0,1.7,0.4,2.3,1
	c0.6,0.6,1,1.4,1,2.3v54.2c0,0.7-0.2,1.4-0.6,2c-0.4,0.6-1,1-1.7,1.2C365.5,62,365.1,62,364.8,62z"/>
</svg>
